<svg width="32" height="26" viewBox="0 0 32 26" fill="none" xmlns="http://www.w3.org/2000/svg">
<path d="M6.15257 14.1102C7.94007 14.1102 9.38913 12.6611 9.38913 10.8736C9.38913 9.08611 7.94007 7.63705 6.15257 7.63705C4.36507 7.63705 2.91602 9.08611 2.91602 10.8736C2.91602 12.6611 4.36507 14.1102 6.15257 14.1102Z" stroke="#9BA2B1" stroke-width="0.995434" stroke-miterlimit="10"/>
<path d="M9.49951 24.8088L2.49951 24.8088V11L3.84833 12.9928L6.17958 13.956L8.77727 12.7359L9.49951 10.9378V24.8088Z" fill="#9BA2B1"/>
<path d="M11.4343 25.9971H0.271484V24.676C0.271484 24.2797 0.601745 24.0155 0.932006 24.0155H10.7077C11.104 24.0155 11.3683 24.3458 11.3683 24.676V25.9971H11.4343Z" fill="#9BA2B1"/>
<path d="M25.3765 20.9037L20.9235 16.3726L16.3923 20.9037L25.3765 20.9037Z" fill="#9BA2B1"/>
<path d="M19.9044 25.6988L21.9355 25.6988L21.9355 18.7908L19.9044 18.7908L19.9044 25.6988Z" fill="#9BA2B1"/>
<path d="M8.56271 13.5555L26.3651 13.4874C27.7522 13.4954 28.9476 12.3793 28.9559 10.9262C28.9638 9.53912 27.8478 8.34377 26.3946 8.33545L8.44083 8.33358L9.73386 11.0143L8.56271 13.5555Z" fill="#9BA2B1"/>
<path d="M22.5586 9.51559L25.3825 12.3721" stroke="#05163C" stroke-width="0.995434" stroke-miterlimit="10"/>
<path d="M17.0093 9.46643L19.8993 12.3233" stroke="#05163C" stroke-width="0.995434" stroke-miterlimit="10"/>
<path d="M11.5259 9.44434L14.3498 12.3008" stroke="#05163C" stroke-width="0.995434" stroke-miterlimit="10"/>
</svg>
