<svg width="22" height="20" viewBox="0 0 22 20" fill="none" xmlns="http://www.w3.org/2000/svg">
<g opacity="0.6">
<path d="M8.45214 13.1085C8.51614 13.1085 8.56414 13.1085 8.61214 13.1085C10.1375 13.1085 11.6603 13.1085 13.1857 13.1085C13.359 13.1085 13.3617 13.1085 13.3617 13.2851C13.3617 15.4462 13.3617 17.6101 13.3617 19.7712C13.3617 19.9959 13.3617 19.9986 13.591 19.9986C15.2311 19.9986 16.8711 19.9986 18.5112 19.9986C18.7432 19.9986 18.7459 19.9932 18.7459 19.7552C18.7459 19.239 18.7485 18.7201 18.7459 18.2038C18.7432 17.9123 18.7299 17.6181 18.7272 17.3265C18.7272 17.2035 18.7459 17.0778 18.7459 16.9548C18.7485 15.1039 18.7459 13.2556 18.7485 11.4047C18.7485 11.2576 18.7059 11.1533 18.6019 11.0517C16.1778 8.62571 13.7563 6.19708 11.3349 3.76844C11.0576 3.49027 10.7616 3.49027 10.4842 3.76844C8.51614 5.75843 6.55073 7.74573 4.58265 9.73572C4.11597 10.2065 3.65728 10.6852 3.1906 11.1533C3.09726 11.2469 3.06259 11.3432 3.06259 11.4716C3.06526 13.8066 3.06526 16.1443 3.06526 18.4793C3.06526 18.688 3.08659 18.8966 3.08393 19.1026C3.08126 19.3486 3.06793 19.592 3.05726 19.8381C3.05193 19.9478 3.09193 19.9825 3.20127 19.9825C3.45194 19.9799 3.70529 19.9906 3.95596 19.9906C4.16397 19.9906 4.37198 19.9825 4.57999 19.9825C4.68666 19.9825 4.79066 19.9932 4.89733 19.9932C6.00937 19.9932 7.11875 19.9932 8.23079 19.9932C8.4388 19.9932 8.44947 19.9852 8.44947 19.7739C8.44947 17.602 8.44947 15.4328 8.44947 13.261C8.45214 13.2155 8.45214 13.17 8.45214 13.1085Z" />
<path d="M6.14197 4.55102C6.14197 4.50287 6.14197 4.45473 6.14197 4.40658C6.14197 3.61219 6.14197 2.82048 6.14197 2.02609C6.14197 1.80944 6.14197 1.80944 5.93396 1.80944C5.21926 1.80944 4.5019 1.80944 3.78721 1.80944C3.5792 1.80944 3.5792 1.80944 3.5792 2.01272C3.5792 3.67906 3.57653 5.34541 3.58187 7.01442C3.58187 7.14013 3.54453 7.2284 3.45653 7.31667C2.38716 8.3919 1.31778 9.46981 0.251072 10.5504C-0.159611 10.965 -0.0529404 11.5882 0.464415 11.8423C0.728424 11.9707 1.08577 11.9118 1.31778 11.6898C1.64046 11.3795 1.96314 11.0666 2.27782 10.7456C3.30986 9.69716 4.33923 8.64332 5.37127 7.59483C6.70465 6.24143 8.03804 4.89338 9.37409 3.54265C9.83811 3.0719 10.3075 2.60383 10.7741 2.13308C10.8541 2.05016 10.9795 2.06354 11.0808 2.16518C11.7448 2.8285 12.4089 3.49183 13.0729 4.15516C13.8089 4.89071 15.873 6.97163 16.0277 7.12409C16.849 7.9372 17.6651 8.75833 18.4811 9.57679C18.8625 9.95928 19.2411 10.3471 19.6252 10.7269C19.8865 10.9864 20.1558 11.2378 20.4198 11.4946C20.4785 11.5534 20.5239 11.6283 20.5825 11.6871C20.8945 11.9894 21.3692 11.9814 21.6732 11.6764C21.9799 11.3688 21.9879 10.9115 21.6732 10.5959C20.3478 9.26118 19.0198 7.93185 17.6944 6.59984C15.9477 4.84791 14.2009 3.09598 12.4542 1.34137C12.0595 0.945509 11.6648 0.549653 11.2675 0.15647C11.0568 -0.0521568 10.7368 -0.0521568 10.5288 0.15647C9.12608 1.57407 7.72336 2.99166 6.32331 4.41193C6.27264 4.46275 6.22997 4.51892 6.18463 4.57241C6.1713 4.56439 6.1553 4.55904 6.14197 4.55102Z" />
</g>
</svg>
