<svg width="22" height="22" viewBox="0 0 22 22" fill="none" xmlns="http://www.w3.org/2000/svg">
<path opacity="0.6" fill-rule="evenodd" clip-rule="evenodd" d="M5 0C2.23858 0 0 2.23858 0 5V17C0 19.7614 2.23858 22 5 22H17C19.7614 22 22 19.7614 22 17V5C22 2.23858 19.7614 0 17 0H5ZM8.64276 4.78572H7.14276V6.28572V12.1786V16.1071V17.6071H10.1428V16.1071V13.6786H10.1455H10.15H10.1545H10.159H10.1635H10.168H10.1726H10.1771H10.1816H10.1861H10.1906H10.1951H10.1996H10.2041H10.2086H10.2131H10.2176H10.2221H10.2266H10.2311H10.2356H10.2401H10.2446H10.2491H10.2536H10.2581H10.2626H10.2671H10.2716H10.2761H10.2806H10.2851H10.2896H10.2941H10.2986H10.3031H10.3076H10.3121H10.3166H10.3211H10.3256H10.3301H10.3346H10.3391H10.3436H10.3481H10.3526H10.3571H10.3617H10.3662H10.3707H10.3752H10.3797H10.3843H10.3888H10.3933H10.3978H10.4024H10.4069H10.4114H10.416H10.4205H10.4251H10.4296H10.4342H10.4387H10.4433H10.4478H10.4524H10.457H10.4615H10.4661H10.4707H10.4752H10.4798H10.4844H10.489H10.4936H10.4982H10.5028H10.5074H10.512H10.5166H10.5212H10.5259H10.5305H10.5351H10.5398H10.5444H10.549H10.5537H10.5583H10.563H10.5677H10.5723H10.577H10.5817H10.5864H10.5911H10.5958H10.6005H10.6052H10.6099H10.6146H10.6193H10.6241H10.6288H10.6335H10.6383H10.643H10.6478H10.6526H10.6573H10.6621H10.6669H10.6717H10.6765H10.6813H10.6861H10.6909H10.6958H10.7006H10.7054H10.7103H10.7152H10.72H10.7249H10.7298H10.7347H10.7396H10.7445H10.7494H10.7543H10.7592H10.7641H10.7691H10.774H10.779H10.784H10.7889H10.7939H10.7989H10.8039H10.8089H10.814H10.819H10.824H10.8291H10.8341H10.8392H10.8443H10.8494H10.8544H10.8596H10.8647H10.8698H10.8749H10.8801H10.8852H10.8904H10.8955H10.9007H10.9059H10.9111H10.9163H10.9216H10.9268H10.932H10.9373H10.9426H10.9478H10.9531H10.9584H10.9637H10.9691H10.9744H10.9797H10.9851H10.9905H10.9958H11.0012H11.0066H11.012H11.0175H11.0229H11.0284H11.0338H11.0393H11.0448H11.0503H11.0558H11.0613H11.0668H11.0724H11.078H11.0835H11.0891H11.0947H11.1003H11.1059H11.1116H11.1172H11.1229H11.1286H11.1343H11.14H11.1457H11.1514H11.1572H11.1629H11.1687H11.1745H11.1803H11.1861H11.1919H11.1978H11.2036H11.2095H11.2154H11.2213H11.2272H11.2331H11.2391H11.2451H11.251H11.257H11.263H11.269H11.2751H11.2811H11.2872H11.2933H11.2994H11.3055H11.3116H11.3178H11.3239H11.3301H11.3363H11.3425H11.3487H11.355H11.3612H11.3675H11.3738H11.3801H11.3864H11.3928C12.4033 13.6786 13.5722 13.4271 14.5145 12.6409C15.5044 11.8149 16.0356 10.5734 16.0356 9.03572C16.0356 7.5973 15.433 6.45874 14.4535 5.72411C13.5328 5.03364 12.4002 4.78572 11.3928 4.78572H11.3859H11.379H11.3721H11.3652H11.3583H11.3515H11.3446H11.3378H11.3309H11.3241H11.3173H11.3105H11.3037H11.2969H11.2901H11.2833H11.2765H11.2697H11.263H11.2562H11.2495H11.2428H11.236H11.2293H11.2226H11.2159H11.2092H11.2025H11.1958H11.1891H11.1825H11.1758H11.1692H11.1625H11.1559H11.1492H11.1426H11.136H11.1294H11.1228H11.1162H11.1096H11.1031H11.0965H11.0899H11.0834H11.0768H11.0703H11.0638H11.0572H11.0507H11.0442H11.0377H11.0312H11.0247H11.0182H11.0118H11.0053H10.9988H10.9924H10.986H10.9795H10.9731H10.9667H10.9602H10.9538H10.9474H10.9411H10.9347H10.9283H10.9219H10.9156H10.9092H10.9028H10.8965H10.8902H10.8838H10.8775H10.8712H10.8649H10.8586H10.8523H10.846H10.8397H10.8335H10.8272H10.8209H10.8147H10.8085H10.8022H10.796H10.7898H10.7835H10.7773H10.7711H10.7649H10.7587H10.7526H10.7464H10.7402H10.7341H10.7279H10.7218H10.7156H10.7095H10.7034H10.6972H10.6911H10.685H10.6789H10.6728H10.6667H10.6607H10.6546H10.6485H10.6425H10.6364H10.6304H10.6243H10.6183H10.6123H10.6062H10.6002H10.5942H10.5882H10.5822H10.5762H10.5702H10.5643H10.5583H10.5523H10.5464H10.5404H10.5345H10.5286H10.5226H10.5167H10.5108H10.5049H10.499H10.4931H10.4872H10.4813H10.4754H10.4696H10.4637H10.4578H10.452H10.4461H10.4403H10.4344H10.4286H10.4228H10.417H10.4112H10.4054H10.3996H10.3938H10.388H10.3822H10.3764H10.3707H10.3649H10.3592H10.3534H10.3477H10.3419H10.3362H10.3305H10.3248H10.319H10.3133H10.3076H10.3019H10.2962H10.2906H10.2849H10.2792H10.2736H10.2679H10.2622H10.2566H10.251H10.2453H10.2397H10.2341H10.2284H10.2228H10.2172H10.2116H10.206H10.2004H10.1949H10.1893H10.1837H10.1781H10.1726H10.167H10.1615H10.1559H10.1504H10.1449H10.1393H10.1338H10.1283H10.1228H10.1173H10.1118H10.1063H10.1008H10.0953H10.0898H10.0844H10.0789H10.0734H10.068H10.0625H10.0571H10.0517H10.0462H10.0408H10.0354H10.03H10.0245H10.0191H10.0137H10.0083H10.003H9.99757H9.99219H9.98682H9.98145H9.97609H9.97073H9.96538H9.96003H9.95469H9.94935H9.94402H9.93869H9.93337H9.92805H9.92274H9.91743H9.91213H9.90684H9.90155H9.89626H9.89098H9.8857H9.88043H9.87517H9.86991H9.86465H9.8594H9.85416H9.84892H9.84368H9.83845H9.83323H9.828H9.82279H9.81758H9.81237H9.80717H9.80198H9.79679H9.7916H9.78642H9.78124H9.77607H9.7709H9.76574H9.76058H9.75543H9.75028H9.74514H9.74H9.73487H9.72974H9.72462H9.7195H9.71438H9.70927H9.70417H9.69907H9.69397H9.68888H9.68379H9.67871H9.67363H9.66856H9.66349H9.65843H9.65337H9.64831H9.64326H9.63822H9.63317H9.62814H9.62311H9.61808H9.61305H9.60804H9.60302H9.59801H9.593H9.588H9.58301H9.57801H9.57303H9.56804H9.56306H9.55809H9.55312H9.54815H9.54319H9.53823H9.53328H9.52833H9.52338H9.51844H9.5135H9.50857H9.50364H9.49872H9.4938H9.48888H9.48397H9.47906H9.47416H9.46926H9.46436H9.45947H9.45459H9.4497H9.44482H9.43995H9.43508H9.43021H9.42535H9.42049H9.41563H9.41078H9.40594H9.40109H9.39625H9.39142H9.38659H9.38176H9.37694H9.37212H9.3673H9.36249H9.35768H9.35288H9.34808H9.34328H9.33849H9.3337H9.32891H9.32413H9.31935H9.31458H9.30981H9.30504H9.30028H9.29552H9.29077H9.28601H9.28127H9.27652H9.27178H9.26704H9.26231H9.25758H9.25285H9.24813H9.24341H9.2387H9.23398H9.22927H9.22457H9.21987H9.21517H9.21047H9.20578H9.2011H9.19641H9.19173H9.18705H9.18238H9.17771H9.17304H9.16838H9.16372H9.15906H9.1544H9.14975H9.14511H9.14046H9.13582H9.13118H9.12655H9.12192H9.11729H9.11267H9.10805H9.10343H9.09881H9.0942H9.08959H9.08499H9.08039H9.07579H9.07119H9.0666H9.06201H9.05742H9.05284H9.04826H9.04368H9.03911H9.03454H9.02997H9.0254H9.02084H9.01628H9.01172H9.00717H9.00262H8.99807H8.99353H8.98899H8.98445H8.97991H8.97538H8.97085H8.96632H8.9618H8.95728H8.95276H8.94824H8.94373H8.93922H8.93471H8.93021H8.9257H8.92121H8.91671H8.91222H8.90772H8.90324H8.89875H8.89427H8.88979H8.88531H8.88083H8.87636H8.87189H8.86742H8.86296H8.8585H8.85404H8.84958H8.84513H8.84067H8.83622H8.83178H8.82733H8.82289H8.81845H8.81401H8.80958H8.80515H8.80072H8.79629H8.79187H8.78744H8.78302H8.77861H8.77419H8.76978H8.76537H8.76096H8.75655H8.75215H8.74775H8.74335H8.73895H8.73455H8.73016H8.72577H8.72138H8.717H8.71261H8.70823H8.70385H8.69948H8.6951H8.69073H8.68636H8.68199H8.67762H8.67326H8.66889H8.66453H8.66017H8.65582H8.65146H8.64711H8.64276ZM10.1455 10.6786H10.1428V7.78572H10.1449H10.1504H10.1559H10.1615H10.167H10.1726H10.1781H10.1837H10.1893H10.1949H10.2004H10.206H10.2116H10.2172H10.2228H10.2284H10.2341H10.2397H10.2453H10.251H10.2566H10.2622H10.2679H10.2736H10.2792H10.2849H10.2906H10.2962H10.3019H10.3076H10.3133H10.319H10.3248H10.3305H10.3362H10.3419H10.3477H10.3534H10.3592H10.3649H10.3707H10.3764H10.3822H10.388H10.3938H10.3996H10.4054H10.4112H10.417H10.4228H10.4286H10.4344H10.4403H10.4461H10.452H10.4578H10.4637H10.4696H10.4754H10.4813H10.4872H10.4931H10.499H10.5049H10.5108H10.5167H10.5226H10.5286H10.5345H10.5404H10.5464H10.5523H10.5583H10.5643H10.5702H10.5762H10.5822H10.5882H10.5942H10.6002H10.6062H10.6123H10.6183H10.6243H10.6304H10.6364H10.6425H10.6485H10.6546H10.6607H10.6667H10.6728H10.6789H10.685H10.6911H10.6972H10.7034H10.7095H10.7156H10.7218H10.7279H10.7341H10.7402H10.7464H10.7526H10.7587H10.7649H10.7711H10.7773H10.7835H10.7898H10.796H10.8022H10.8085H10.8147H10.8209H10.8272H10.8335H10.8397H10.846H10.8523H10.8586H10.8649H10.8712H10.8775H10.8838H10.8902H10.8965H10.9028H10.9092H10.9156H10.9219H10.9283H10.9347H10.9411H10.9474H10.9538H10.9602H10.9667H10.9731H10.9795H10.986H10.9924H10.9988H11.0053H11.0118H11.0182H11.0247H11.0312H11.0377H11.0442H11.0507H11.0572H11.0638H11.0703H11.0768H11.0834H11.0899H11.0965H11.1031H11.1096H11.1162H11.1228H11.1294H11.136H11.1426H11.1492H11.1559H11.1625H11.1692H11.1758H11.1825H11.1891H11.1958H11.2025H11.2092H11.2159H11.2226H11.2293H11.236H11.2428H11.2495H11.2562H11.263H11.2697H11.2765H11.2833H11.2901H11.2969H11.3037H11.3105H11.3173H11.3241H11.3309H11.3378H11.3446H11.3515H11.3583H11.3652H11.3721H11.379H11.3859H11.3928C11.9567 7.78572 12.3955 7.93065 12.6535 8.12411C12.8525 8.27341 13.0356 8.50985 13.0356 9.03572C13.0356 9.85006 12.7811 10.18 12.5925 10.3374C12.3562 10.5346 11.9536 10.6786 11.3928 10.6786H11.3864H11.3801H11.3738H11.3675H11.3612H11.355H11.3487H11.3425H11.3363H11.3301H11.3239H11.3178H11.3116H11.3055H11.2994H11.2933H11.2872H11.2811H11.2751H11.269H11.263H11.257H11.251H11.2451H11.2391H11.2331H11.2272H11.2213H11.2154H11.2095H11.2036H11.1978H11.1919H11.1861H11.1803H11.1745H11.1687H11.1629H11.1572H11.1514H11.1457H11.14H11.1343H11.1286H11.1229H11.1172H11.1116H11.1059H11.1003H11.0947H11.0891H11.0835H11.078H11.0724H11.0668H11.0613H11.0558H11.0503H11.0448H11.0393H11.0338H11.0284H11.0229H11.0175H11.012H11.0066H11.0012H10.9958H10.9905H10.9851H10.9797H10.9744H10.9691H10.9637H10.9584H10.9531H10.9478H10.9426H10.9373H10.932H10.9268H10.9216H10.9163H10.9111H10.9059H10.9007H10.8955H10.8904H10.8852H10.8801H10.8749H10.8698H10.8647H10.8596H10.8544H10.8494H10.8443H10.8392H10.8341H10.8291H10.824H10.819H10.814H10.8089H10.8039H10.7989H10.7939H10.7889H10.784H10.779H10.774H10.7691H10.7641H10.7592H10.7543H10.7494H10.7445H10.7396H10.7347H10.7298H10.7249H10.72H10.7152H10.7103H10.7054H10.7006H10.6958H10.6909H10.6861H10.6813H10.6765H10.6717H10.6669H10.6621H10.6573H10.6526H10.6478H10.643H10.6383H10.6335H10.6288H10.6241H10.6193H10.6146H10.6099H10.6052H10.6005H10.5958H10.5911H10.5864H10.5817H10.577H10.5723H10.5677H10.563H10.5583H10.5537H10.549H10.5444H10.5398H10.5351H10.5305H10.5259H10.5212H10.5166H10.512H10.5074H10.5028H10.4982H10.4936H10.489H10.4844H10.4798H10.4752H10.4707H10.4661H10.4615H10.457H10.4524H10.4478H10.4433H10.4387H10.4342H10.4296H10.4251H10.4205H10.416H10.4114H10.4069H10.4024H10.3978H10.3933H10.3888H10.3843H10.3797H10.3752H10.3707H10.3662H10.3617H10.3571H10.3526H10.3481H10.3436H10.3391H10.3346H10.3301H10.3256H10.3211H10.3166H10.3121H10.3076H10.3031H10.2986H10.2941H10.2896H10.2851H10.2806H10.2761H10.2716H10.2671H10.2626H10.2581H10.2536H10.2491H10.2446H10.2401H10.2356H10.2311H10.2266H10.2221H10.2176H10.2131H10.2086H10.2041H10.1996H10.1951H10.1906H10.1861H10.1816H10.1771H10.1726H10.168H10.1635H10.159H10.1545H10.15H10.1455Z" fill="white"/>
</svg>
