<svg width="24" height="24" viewBox="0 0 24 24" fill="none" xmlns="http://www.w3.org/2000/svg">
<g opacity="0.6">
<path d="M20.9395 13.0193C20.9765 12.6847 21 12.3454 21 12.0003C21 11.6551 20.9765 11.3159 20.939 10.9807L18.3692 10.0668C18.2412 9.64647 18.0734 9.24497 17.8703 8.86343L19.0395 6.40277C18.614 5.86911 18.13 5.38477 17.5968 4.95878L15.1362 6.13041C14.7527 5.92454 14.3496 5.7574 13.9329 5.63147L13.0196 3.06163C12.6844 3.02407 12.3451 3 12 3C11.6549 3 11.3156 3.02348 10.9804 3.06163L10.0671 5.63147C9.64684 5.75885 9.24535 5.92614 8.86382 6.13041L6.40266 4.95878C5.86852 5.38435 5.38486 5.86861 4.95872 6.40277L6.13031 8.86225C5.92604 9.2438 5.75876 9.64588 5.63138 10.0656L3.06163 10.9813C3.02407 11.3159 3 11.6563 3 12.0009C3 12.3454 3.02348 12.6847 3.06163 13.0199L5.63138 13.9344C5.75876 14.3541 5.92604 14.7562 6.13031 15.1377L4.9593 17.5984C5.38486 18.1326 5.86911 18.6157 6.40325 19.0412L8.86206 17.8702C9.24359 18.0744 9.64567 18.2423 10.0653 18.3703L10.9798 20.9395C11.3144 20.9765 11.6537 21 11.9994 21C12.3446 21 12.6832 20.9765 13.0184 20.939L13.9329 18.3691C14.3526 18.2412 14.7546 18.0733 15.1362 17.8702L17.5968 19.0395C18.1309 18.6139 18.614 18.1296 19.0395 17.5966L17.8697 15.1366C18.074 14.7568 18.2418 14.3535 18.3698 13.9332L20.939 13.0193H20.9395ZM12 14.8589C11.6245 14.859 11.2527 14.7851 10.9058 14.6415C10.5589 14.4979 10.2437 14.2873 9.97812 14.0219C9.44182 13.4858 9.14044 12.7586 9.14029 12.0003C9.14013 11.242 9.44121 10.5147 9.97729 9.97835C10.5134 9.44203 11.2405 9.14064 11.9988 9.14049C12.7571 9.14033 13.4844 9.44142 14.0207 9.97752C14.557 10.5136 14.8584 11.2408 14.8585 11.9991C14.8587 12.7574 14.5576 13.4847 14.0215 14.0211C13.4855 14.5574 12.7583 14.8588 12 14.8589Z" fill="white"/>
</g>
</svg>
