<svg width="15" height="8" viewBox="0 0 15 8" fill="none" xmlns="http://www.w3.org/2000/svg">
<path d="M7.02316 0.00234829C7.25681 0.00189198 7.48325 0.0832666 7.66316 0.232348L13.6632 5.23235C13.8674 5.40209 13.9958 5.646 14.0202 5.91043C14.0446 6.17485 13.9629 6.43813 13.7932 6.64235C13.6234 6.84657 13.3795 6.97499 13.1151 6.99937C12.8507 7.02375 12.5874 6.94209 12.3832 6.77235L7.02316 2.29235L1.66316 6.61235C1.56087 6.69541 1.44318 6.75745 1.31684 6.79488C1.1905 6.83231 1.05801 6.8444 0.92698 6.83046C0.795952 6.81652 0.668969 6.77683 0.553332 6.71365C0.437696 6.65048 0.335684 6.56507 0.253161 6.46235C0.161582 6.35953 0.0922223 6.2389 0.04943 6.10803C0.00663766 5.97715 -0.00866498 5.83885 0.00447761 5.70179C0.0176202 5.56473 0.0589267 5.43185 0.12581 5.3115C0.192693 5.19114 0.283713 5.08589 0.393163 5.00235L6.39316 0.172348C6.57825 0.0468324 6.80006 -0.0130226 7.02316 0.00234829Z" fill="white"/>
</svg>
