<svg width="18" height="16" viewBox="0 0 18 16" fill="none" xmlns="http://www.w3.org/2000/svg">
<path d="M1.27472 8.2159C0.743686 8.06417 0.1902 8.37166 0.038476 8.9027C-0.113248 9.43373 0.194244 9.98722 0.725279 10.1389L1.27472 8.2159ZM6.66129 14.8387L5.69977 15.1134C5.82022 15.535 6.20123 15.8289 6.63957 15.8385C7.0779 15.848 7.47133 15.5709 7.60997 15.1549L6.66129 14.8387ZM17.2627 1.84366C17.7286 1.54715 17.866 0.929066 17.5695 0.463125C17.273 -0.00281692 16.6549 -0.14017 16.1889 0.156339L17.2627 1.84366ZM0.725279 10.1389C2.63854 10.6856 3.88041 11.9156 4.65781 13.0464C5.04612 13.6112 5.31113 14.1414 5.47785 14.5275C5.56093 14.7199 5.61879 14.8746 5.65477 14.9774C5.67275 15.0288 5.6852 15.067 5.69257 15.0903C5.69625 15.1019 5.69866 15.1099 5.69984 15.1138C5.70043 15.1158 5.70072 15.1167 5.7007 15.1167C5.7007 15.1167 5.70061 15.1164 5.70046 15.1158C5.70038 15.1156 5.70028 15.1152 5.70017 15.1148C5.70011 15.1146 5.70001 15.1143 5.69998 15.1142C5.69988 15.1138 5.69977 15.1134 6.66129 14.8387C7.62281 14.564 7.6227 14.5636 7.62257 14.5631C7.62252 14.563 7.62239 14.5625 7.6223 14.5622C7.62211 14.5615 7.62189 14.5608 7.62166 14.56C7.6212 14.5584 7.62065 14.5565 7.62002 14.5543C7.61876 14.5501 7.61718 14.5447 7.61525 14.5383C7.61141 14.5255 7.60621 14.5085 7.5996 14.4876C7.58639 14.4458 7.56752 14.3882 7.54249 14.3167C7.49248 14.1738 7.41764 13.9747 7.31398 13.7346C7.10721 13.2558 6.7825 12.6066 6.3059 11.9133C5.35346 10.5279 3.76469 8.92731 1.27472 8.2159L0.725279 10.1389ZM6.66129 14.8387C7.60997 15.1549 7.60991 15.1551 7.60985 15.1553C7.60985 15.1553 7.6098 15.1555 7.6098 15.1555C7.60978 15.1555 7.60982 15.1554 7.6099 15.1552C7.61007 15.1547 7.61043 15.1536 7.61097 15.152C7.61207 15.1487 7.61393 15.1433 7.61655 15.1356C7.6218 15.1203 7.6301 15.0963 7.64148 15.0639C7.66425 14.9993 7.69931 14.9016 7.74681 14.7744C7.84184 14.5198 7.9865 14.1473 8.18193 13.6849C8.57319 12.7593 9.16588 11.4783 9.96848 10.0642C11.5843 7.21724 14.0017 3.91883 17.2627 1.84366L16.1889 0.156339C12.5306 2.4844 9.9157 6.10534 8.2291 9.07696C7.38049 10.5721 6.75443 11.9252 6.33974 12.9063C6.1322 13.3973 5.97709 13.7963 5.87309 14.075C5.82107 14.2143 5.78181 14.3236 5.75512 14.3994C5.74178 14.4373 5.73158 14.4668 5.7245 14.4874C5.72096 14.4977 5.7182 14.5059 5.71622 14.5117C5.71523 14.5147 5.71443 14.517 5.71383 14.5188C5.71353 14.5197 5.71328 14.5205 5.71307 14.5211C5.71297 14.5214 5.71285 14.5217 5.7128 14.5219C5.7127 14.5222 5.71261 14.5225 6.66129 14.8387Z" fill="white"/>
</svg>
