<svg width="16" height="17" viewBox="0 0 16 17" fill="none" xmlns="http://www.w3.org/2000/svg">
<circle cx="8" cy="8.15253" r="7.5" stroke="black"/>
<path d="M7.501 6.643H8.814V13H7.501V6.643ZM8.164 5.447C7.93 5.447 7.735 5.37333 7.579 5.226C7.43167 5.07867 7.358 4.888 7.358 4.654C7.358 4.42867 7.43167 4.24233 7.579 4.095C7.735 3.94767 7.93 3.874 8.164 3.874C8.398 3.874 8.58867 3.94767 8.736 4.095C8.892 4.24233 8.97 4.42867 8.97 4.654C8.97 4.888 8.892 5.07867 8.736 5.226C8.58867 5.37333 8.398 5.447 8.164 5.447Z" fill="black"/>
</svg>
