<svg width="170" height="74" viewBox="0 0 170 74" fill="none" xmlns="http://www.w3.org/2000/svg">
<g clip-path="url(#clip0)">
<path d="M10.3732 44.6539V45.9298C13.5093 43.494 17.4585 41.1743 21.8722 39.0865C31.3966 34.563 40.5726 32.7072 45.3348 33.7511V33.2872C39.2949 32.1273 30.2351 33.7511 21.0592 38.0426C14.6708 41.1743 8.63098 46.0458 10.3732 44.6539Z" fill="url(#paint0_linear)"/>
<path d="M109.797 23.4273C108.868 23.4273 107.939 22.9633 107.591 22.0354C105.616 17.9759 101.551 15.5401 97.137 15.5401C92.7232 15.5401 88.6579 17.9759 86.6833 22.0354C86.1026 23.3113 84.5926 23.7752 83.315 23.1953C82.0373 22.6154 81.5727 21.1075 82.1535 19.8317C85.0572 14.1483 90.7486 10.5527 97.137 10.5527C103.525 10.5527 109.333 14.1483 112.12 19.8317C112.701 21.1075 112.237 22.6154 110.959 23.1953C110.494 23.4273 110.146 23.4273 109.797 23.4273Z" fill="url(#paint1_linear)"/>
<path d="M76.4628 15.6583C75.9982 15.6583 75.5335 15.5423 75.0689 15.1944C73.9074 14.3824 73.6751 12.8746 74.4882 11.8307C79.5988 4.40752 88.0779 0 97.0215 0C105.965 0 114.328 4.40752 119.439 11.7147C120.252 12.8746 119.903 14.3824 118.858 15.0784C117.696 15.8903 116.186 15.5423 115.49 14.4984C111.308 8.46709 104.455 4.87147 97.0215 4.87147C89.5878 4.87147 82.7349 8.46709 78.5535 14.6144C78.0889 15.3103 77.2758 15.6583 76.4628 15.6583Z" fill="url(#paint2_linear)"/>
<path d="M15.1348 37.1174C15.1348 35.1456 15.5994 33.5218 16.5286 32.0139C17.4578 30.5061 18.6193 29.3462 20.1293 28.3023C21.6392 27.3744 23.2654 26.6785 25.1238 26.0986C26.9822 25.6346 28.8406 25.4026 30.699 25.4026C32.5574 25.4026 34.4159 25.6346 36.2743 26.0986C38.1327 26.5625 39.7588 27.2584 41.2688 28.3023C42.7788 29.3462 43.9403 30.5061 44.8695 32.0139C45.7987 33.5218 46.2633 35.1456 46.2633 37.1174V62.4027C46.2633 64.3744 45.7987 66.1143 44.8695 67.6221C43.9403 69.0139 42.7788 70.2898 41.2688 71.2177C39.7588 72.1456 38.0166 72.9575 36.2743 73.4215C34.4159 73.8854 32.5574 74.1174 30.699 74.1174C28.8406 74.1174 26.9822 73.8854 25.1238 73.4215C23.2654 72.9575 21.6392 72.1456 20.1293 71.2177C18.6193 70.2898 17.4578 69.1299 16.5286 67.6221C15.5994 66.2302 15.1348 64.4904 15.1348 62.4027V37.1174ZM24.4269 62.4027C24.4269 64.0265 25.0076 65.3023 26.2853 66.1143C27.5629 66.9262 28.9568 67.2741 30.699 67.2741C32.4413 67.2741 33.8351 66.9262 35.1128 66.1143C36.3904 65.3023 36.9712 64.1425 36.9712 62.4027V37.1174C36.9712 35.4936 36.3904 34.2177 35.1128 33.4058C33.8351 32.5939 32.4413 32.2459 30.699 32.2459C28.9568 32.2459 27.5629 32.5939 26.2853 33.4058C25.0076 34.2177 24.4269 35.3776 24.4269 37.1174V62.4027Z" fill="white"/>
<path d="M55.6719 73.6534V25.7505H69.61C72.1653 25.7505 74.3722 25.9825 76.3468 26.4465C78.3214 26.9104 80.0636 27.8383 81.5736 29.1142C83.1997 30.39 84.2451 31.7819 84.8258 33.5217C85.4066 35.1455 85.755 37.4653 85.755 40.365C85.755 42.5687 85.6389 44.3085 85.2904 45.8164C84.942 47.3242 84.2451 48.7161 83.1997 49.9919C81.922 51.6157 80.1798 52.7756 78.0891 53.7035C75.9983 54.6314 73.2107 54.9794 69.7262 54.9794H64.964V73.6534H55.6719ZM64.964 32.2458V48.4841H69.3777C71.2361 48.4841 72.7461 48.2521 73.7915 47.9042C74.8368 47.5562 75.5337 46.9763 76.1145 46.2803C76.5791 45.5844 76.9275 44.7725 76.9275 43.8446C77.0437 42.9167 77.0437 41.7568 77.0437 40.5969C77.0437 39.4371 77.0437 38.3932 76.9275 37.3493C76.8114 36.3054 76.5791 35.4935 76.1145 34.6816C75.6499 33.8697 74.953 33.2897 73.9076 32.9418C72.9784 32.5938 71.5846 32.3618 69.7262 32.3618H64.964V32.2458Z" fill="white"/>
<path d="M92.6074 73.6505V39.4342H101.9V73.6505H92.6074Z" fill="white"/>
<path d="M101.667 25.8641H92.2588V25.9801H101.667V25.8641Z" fill="#FDC800"/>
<path d="M101.667 25.9811H92.2588V26.0971H101.667V25.9811Z" fill="#FDC700"/>
<path d="M101.667 25.9811H92.2588V26.0971H101.667V25.9811Z" fill="#FDC700"/>
<path d="M101.667 26.0982H92.2588V26.2142H101.667V26.0982Z" fill="#FDC600"/>
<path d="M101.667 26.2103H92.2588V26.3263H101.667V26.2103Z" fill="#FDC500"/>
<path d="M101.667 26.329H92.2588V26.445H101.667V26.329Z" fill="#FCC500"/>
<path d="M101.667 26.329H92.2588V26.445H101.667V26.329Z" fill="#FCC400"/>
<path d="M101.667 26.4433H92.2588V26.5593H101.667V26.4433Z" fill="#FCC300"/>
<path d="M101.667 26.5626H92.2588V26.6785H101.667V26.5626Z" fill="#FCC200"/>
<path d="M101.667 26.6767H92.2588V26.7927H101.667V26.6767Z" fill="#FCC200"/>
<path d="M101.667 26.6767H92.2588V26.7927H101.667V26.6767Z" fill="#FCC100"/>
<path d="M101.667 26.7927H92.2588V26.9087H101.667V26.7927Z" fill="#FBC000"/>
<path d="M101.667 26.9085H92.2588V27.0245H101.667V26.9085Z" fill="#FBC000"/>
<path d="M101.667 27.0261H92.2588V27.1421H101.667V27.0261Z" fill="#FBBF00"/>
<path d="M101.667 27.1415H92.2588V27.2575H101.667V27.1415Z" fill="#FBBE00"/>
<path d="M101.667 27.1415H92.2588V27.2575H101.667V27.1415Z" fill="#FBBE00"/>
<path d="M101.667 27.2571H92.2588V27.3731H101.667V27.2571Z" fill="#FBBD00"/>
<path d="M101.667 27.3712H92.2588V27.4872H101.667V27.3712Z" fill="#FABC00"/>
<path d="M101.667 27.4871H92.2588V27.603H101.667V27.4871Z" fill="#FABB00"/>
<path d="M101.667 27.4871H92.2588V27.603H101.667V27.4871Z" fill="#FABB00"/>
<path d="M101.667 27.6055H92.2588V27.7215H101.667V27.6055Z" fill="#FABA00"/>
<path d="M101.667 27.7243H92.2588V27.8403H101.667V27.7243Z" fill="#FAB900"/>
<path d="M101.667 27.8386H92.2588V27.9545H101.667V27.8386Z" fill="#FAB800"/>
<path d="M101.667 27.8386H92.2588V27.9545H101.667V27.8386Z" fill="#F9B800"/>
<path d="M101.667 27.9506H92.2588V28.0665H101.667V27.9506Z" fill="#F9B701"/>
<path d="M101.667 28.0698H92.2588V28.1858H101.667V28.0698Z" fill="#F9B603"/>
<path d="M101.667 28.1835H92.2588V28.2995H101.667V28.1835Z" fill="#F9B506"/>
<path d="M101.667 28.3028H92.2588V28.4188H101.667V28.3028Z" fill="#F9B508"/>
<path d="M101.667 28.3028H92.2588V28.4188H101.667V28.3028Z" fill="#F9B40B"/>
<path d="M101.667 28.4177H92.2588V28.5337H101.667V28.4177Z" fill="#F8B30D"/>
<path d="M101.667 28.5319H92.2588V28.6478H101.667V28.5319Z" fill="#F8B30F"/>
<path d="M101.667 28.6486H92.2588V28.7645H101.667V28.6486Z" fill="#F8B211"/>
<path d="M101.667 28.6486H92.2588V28.7645H101.667V28.6486Z" fill="#F8B113"/>
<path d="M101.667 28.7628H92.2588V28.8788H101.667V28.7628Z" fill="#F8B014"/>
<path d="M101.667 28.8821H92.2588V28.9981H101.667V28.8821Z" fill="#F8B016"/>
<path d="M101.667 28.9962H92.2588V29.1122H101.667V28.9962Z" fill="#F7AF17"/>
<path d="M101.667 28.9962H92.2588V29.1122H101.667V28.9962Z" fill="#F7AE18"/>
<path d="M101.667 29.1122H92.2588V29.2282H101.667V29.1122Z" fill="#F7AD19"/>
<path d="M101.667 29.23H92.2588V29.346H101.667V29.23Z" fill="#F7AD1B"/>
<path d="M101.667 29.3456H92.2588V29.4616H101.667V29.3456Z" fill="#F7AC1C"/>
<path d="M101.667 29.4609H92.2588V29.5769H101.667V29.4609Z" fill="#F7AB1D"/>
<path d="M101.667 29.4609H92.2588V29.5769H101.667V29.4609Z" fill="#F6AA1E"/>
<path d="M101.667 29.575H92.2588V29.6909H101.667V29.575Z" fill="#F6AA1F"/>
<path d="M101.667 29.6907H92.2588V29.8067H101.667V29.6907Z" fill="#F6A920"/>
<path d="M101.667 29.8087H92.2588V29.9246H101.667V29.8087Z" fill="#F6A821"/>
<path d="M101.667 29.8087H92.2588V29.9246H101.667V29.8087Z" fill="#F6A722"/>
<path d="M101.667 29.925H92.2588V30.041H101.667V29.925Z" fill="#F6A622"/>
<path d="M101.667 30.0402H92.2588V30.1562H101.667V30.0402Z" fill="#F5A623"/>
<path d="M101.667 30.1581H92.2588V30.2741H101.667V30.1581Z" fill="#F5A524"/>
<path d="M101.667 30.2722H92.2588V30.3882H101.667V30.2722Z" fill="#F5A425"/>
<path d="M101.667 30.2722H92.2588V30.3882H101.667V30.2722Z" fill="#F5A326"/>
<path d="M101.667 30.3893H92.2588V30.5053H101.667V30.3893Z" fill="#F5A326"/>
<path d="M101.667 30.5035H92.2588V30.6195H101.667V30.5035Z" fill="#F5A227"/>
<path d="M101.667 30.6223H92.2588V30.7383H101.667V30.6223Z" fill="#F4A128"/>
<path d="M101.667 30.6223H92.2588V30.7383H101.667V30.6223Z" fill="#F4A028"/>
<path d="M101.667 30.7372H92.2588V30.8532H101.667V30.7372Z" fill="#F49F29"/>
<path d="M101.667 30.8514H92.2588V30.9674H101.667V30.8514Z" fill="#F49F2A"/>
<path d="M101.667 30.9702H92.2588V31.0862H101.667V30.9702Z" fill="#F49E2A"/>
<path d="M101.667 30.9702H92.2588V31.0862H101.667V30.9702Z" fill="#F49D2B"/>
<path d="M101.667 31.0845H92.2588V31.2005H101.667V31.0845Z" fill="#F39C2C"/>
<path d="M101.667 31.2015H92.2588V31.3175H101.667V31.2015Z" fill="#F39C2C"/>
<path d="M101.667 31.3157H92.2588V31.4317H101.667V31.3157Z" fill="#F39B2D"/>
<path d="M101.667 31.4339H92.2588V31.5499H101.667V31.4339Z" fill="#F39A2D"/>
<path d="M101.667 31.4339H92.2588V31.5499H101.667V31.4339Z" fill="#F3992E"/>
<path d="M101.667 31.5494H92.2588V31.6654H101.667V31.5494Z" fill="#F3982F"/>
<path d="M101.667 31.6636H92.2588V31.7796H101.667V31.6636Z" fill="#F2982F"/>
<path d="M101.667 31.7808H92.2588V31.8968H101.667V31.7808Z" fill="#F29730"/>
<path d="M101.667 31.7808H92.2588V31.8968H101.667V31.7808Z" fill="#F29630"/>
<path d="M101.667 31.8945H92.2588V32.0105H101.667V31.8945Z" fill="#F29531"/>
<path d="M101.667 32.0124H92.2588V32.1284H101.667V32.0124Z" fill="#F29431"/>
<path d="M101.667 32.1279H92.2588V32.2439H101.667V32.1279Z" fill="#F29432"/>
<path d="M101.667 32.1279H92.2588V32.2439H101.667V32.1279Z" fill="#F19332"/>
<path d="M101.667 32.2443H92.2588V32.3603H101.667V32.2443Z" fill="#F19233"/>
<path d="M101.667 32.3618H92.2588V32.4778H101.667V32.3618Z" fill="#F19133"/>
<path d="M101.667 32.4775H92.2588V32.5935H101.667V32.4775Z" fill="#F19034"/>
<path d="M101.667 32.5916H92.2588V32.7075H101.667V32.5916Z" fill="#F18F34"/>
<path d="M130.008 25.7505V67.1581H140.694V73.6534H110.03V67.1581H120.716V25.7505H130.008Z" fill="white"/>
<path d="M149.522 73.6534V32.2458H138.72V25.7505H169.5V32.2458H158.814V73.6534H149.522Z" fill="white"/>
<path d="M51.8393 37.3492C50.7939 35.2614 48.4709 33.8695 45.3348 33.2896V33.6376C46.961 33.9855 48.1225 34.6815 48.5871 35.8413C50.5616 40.1329 41.8503 48.368 29.1898 54.3993C16.4132 60.4307 4.44962 61.8225 2.47505 57.531C1.19738 54.7473 4.44962 50.2238 10.3733 45.8163V44.5404C2.93965 50.3398 -1.00949 56.8351 1.08123 61.2426C3.98501 67.5059 17.807 67.2739 31.7452 60.6626C45.7994 54.0514 54.7431 43.6125 51.8393 37.3492Z" fill="url(#paint3_linear)"/>
</g>
<defs>
<linearGradient id="paint0_linear" x1="10.0782" y1="39.4983" x2="45.4219" y2="39.4983" gradientUnits="userSpaceOnUse">
<stop stop-color="#FFEF26"/>
<stop offset="0.0594872" stop-color="#FFE000"/>
<stop offset="0.1303" stop-color="#FFD300"/>
<stop offset="0.2032" stop-color="#FECB00"/>
<stop offset="0.2809" stop-color="#FDC800"/>
<stop offset="1" stop-color="#F18F34"/>
</linearGradient>
<linearGradient id="paint1_linear" x1="97.0252" y1="10.5591" x2="97.0252" y2="23.4733" gradientUnits="userSpaceOnUse">
<stop stop-color="#FFEF26"/>
<stop offset="0.0594872" stop-color="#FFE000"/>
<stop offset="0.1303" stop-color="#FFD300"/>
<stop offset="0.2032" stop-color="#FECB00"/>
<stop offset="0.2809" stop-color="#FDC800"/>
<stop offset="1" stop-color="#F18F34"/>
</linearGradient>
<linearGradient id="paint2_linear" x1="96.9884" y1="0" x2="96.9884" y2="15.6555" gradientUnits="userSpaceOnUse">
<stop stop-color="#FFEF26"/>
<stop offset="0.0594872" stop-color="#FFE000"/>
<stop offset="0.1303" stop-color="#FFD300"/>
<stop offset="0.2032" stop-color="#FECB00"/>
<stop offset="0.2809" stop-color="#FDC800"/>
<stop offset="1" stop-color="#F18F34"/>
</linearGradient>
<linearGradient id="paint3_linear" x1="0.500476" y1="49.536" x2="52.3894" y2="49.536" gradientUnits="userSpaceOnUse">
<stop stop-color="#FFEF26"/>
<stop offset="0.0594872" stop-color="#FFE000"/>
<stop offset="0.1303" stop-color="#FFD300"/>
<stop offset="0.2032" stop-color="#FECB00"/>
<stop offset="0.2809" stop-color="#FDC800"/>
<stop offset="1" stop-color="#F18F34"/>
</linearGradient>
<clipPath id="clip0">
<rect width="169" height="74" fill="white" transform="translate(0.5)"/>
</clipPath>
</defs>
</svg>
