<svg width="43" height="40" viewBox="0 0 43 40" fill="none" xmlns="http://www.w3.org/2000/svg">
<path d="M8.27392 22.9714C10.7303 22.9714 12.7217 20.98 12.7217 18.5236C12.7217 16.0672 10.7303 14.0759 8.27392 14.0759C5.8175 14.0759 3.82617 16.0672 3.82617 18.5236C3.82617 20.98 5.8175 22.9714 8.27392 22.9714Z" stroke="white" stroke-width="2" stroke-miterlimit="10"/>
<path d="M13.3523 38.1125L3.22412 38.1125L3.36943 18.043L5.17569 21.0162C5.17569 21.0162 6.33218 22.41 8.54873 22.41C10.7653 22.41 12.3073 20.6446 12.3073 20.6446L13.3523 18.043V38.1125Z" fill="white"/>
<path d="M16.0557 38.8319C16.0557 39.3841 15.6079 39.8319 15.0557 39.8319H1C0.447715 39.8319 0 39.3841 0 38.8319V37.9205C0 37.3471 0.477847 36.9648 0.955694 36.9648H15.1C15.6734 36.9648 16.0557 37.4426 16.0557 37.9205V38.8319Z" fill="white"/>
<path d="M33.6273 30.1079C34.4674 30.1079 34.9331 29.1349 34.4061 28.4806L30.4765 23.6017C30.0784 23.1074 29.3265 23.1042 28.9242 23.5951L24.9256 28.474C24.3906 29.1268 24.8551 30.1079 25.6991 30.1079L33.6273 30.1079Z" fill="white"/>
<path d="M28.6299 36.6395L30.6733 36.6395C31.2256 36.6395 31.6733 36.1918 31.6733 35.6395L31.6733 29.5527C31.6733 29.0004 31.2256 28.5527 30.6733 28.5527L28.6299 28.5527C28.0776 28.5527 27.6299 29.0004 27.6299 29.5527L27.6299 35.6395C27.6299 36.1918 28.0776 36.6395 28.6299 36.6395Z" fill="white"/>
<path d="M12.6036 20.368L37.2269 13.1724C39.1537 12.6107 40.3505 10.5695 39.7621 8.55103C39.2005 6.62427 37.1593 5.42743 35.1408 6.01583L9.47369 13.6253C9.47369 13.6253 11.5288 14.3443 12.4257 16.3285C13.3227 18.3127 12.6036 20.368 12.6036 20.368Z" fill="white"/>
<path d="M30.3086 9.23615L35.4039 12.0314" stroke="#05163C" stroke-width="0.995434" stroke-miterlimit="10"/>
<path d="M22.5928 11.4592L27.7799 14.2276" stroke="#05163C" stroke-width="0.995434" stroke-miterlimit="10"/>
<path d="M14.98 13.6923L20.0753 16.4875" stroke="#05163C" stroke-width="0.995434" stroke-miterlimit="10"/>
</svg>
