<svg width="80" height="87" viewBox="0 0 80 87" fill="none" xmlns="http://www.w3.org/2000/svg">
<g opacity="0.5">
<path d="M67.6616 0.860794L55.7404 19.4498C50.689 17.6314 45.4356 16.8231 39.9801 16.8231C24.2198 16.8231 9.67187 24.5012 0.781454 37.2307C-0.632931 39.2512 -0.0267657 41.8779 1.79173 43.2923C2.59995 43.8985 3.40817 44.1006 4.21639 44.1006C5.63077 44.1006 6.8431 43.4944 7.65132 42.2821C14.9253 31.7752 27.0486 25.3094 39.7781 25.3094C43.4151 25.3094 47.2541 25.9156 50.689 26.9259L45.0315 35.6142C43.415 35.2101 41.5965 35.2101 39.9801 35.2101C28.8671 35.2101 18.9664 41.4738 13.915 51.3745C12.9048 53.5971 13.713 56.2238 15.9356 57.2341C18.1582 58.2444 20.7849 57.4362 21.7952 55.2136C25.2301 48.3437 32.1 44.1006 39.9801 43.8985L13.713 84.1074L17.5632 86.1392L71.5119 2.89257L67.6616 0.860794Z" fill="white"/>
<path d="M78.9771 37.2265C75.3401 31.973 70.8949 27.7299 65.8436 24.497L61.1963 31.5689C65.4394 34.1956 69.0764 37.8326 72.1073 42.0758C73.5216 44.0963 76.1484 44.5004 77.9669 43.0861C79.7853 41.6717 80.1895 39.045 78.9771 37.2265Z" fill="white"/>
<path d="M55.7399 39.8568L50.8906 47.1308C53.9214 49.1514 56.3461 51.7781 57.9625 55.213C58.7708 56.8294 60.1852 57.6377 61.8016 57.6377C62.4078 57.6377 63.0139 57.4356 63.8221 57.2336C66.0447 56.2233 66.853 53.5966 65.8427 51.374C63.6201 46.5246 59.9831 42.6856 55.7399 39.8568Z" fill="white"/>
<path d="M44.8289 56.626L33.918 73.3965C35.5344 74.6088 37.555 75.4171 39.7776 75.4171C45.4351 75.4171 49.8803 70.9719 49.8803 65.3143C50.0824 61.6773 47.8598 58.2424 44.8289 56.626Z" fill="white"/>
</g>
</svg>
