<svg width="30" height="30" viewBox="0 0 30 30" fill="none" xmlns="http://www.w3.org/2000/svg">
<path fill-rule="evenodd" clip-rule="evenodd" d="M5.16648 0C2.31311 0 0 2.31311 0 5.16648L0 24.8335C0 27.6869 2.31311 30 5.16648 30H24.8335C27.6869 30 30 27.6869 30 24.8335V5.16648C30 2.31311 27.6869 0 24.8335 0L5.16648 0ZM11.7858 6.63391H9.8484V8.57134L9.8484 16.6071V21.9642V23.9016H13.7233V21.9642V18.5445H13.7234H13.7297H13.7359H13.7421H13.7483H13.7545H13.7607H13.7669H13.7731H13.7793H13.7855H13.7917H13.7979H13.8041H13.8103H13.8165H13.8226H13.8288H13.835H13.8411H13.8473H13.8535H13.8596H13.8658H13.8719H13.8781H13.8842H13.8904H13.8965H13.9027H13.9088H13.9149H13.9211H13.9272H13.9334H13.9395H13.9456H13.9518H13.9579H13.964H13.9702H13.9763H13.9824H13.9886H13.9947H14.0008H14.007H14.0131H14.0192H14.0254H14.0315H14.0376H14.0438H14.0499H14.056H14.0622H14.0683H14.0744H14.0806H14.0867H14.0929H14.099H14.1052H14.1113H14.1175H14.1236H14.1298H14.1359H14.1421H14.1483H14.1544H14.1606H14.1668H14.1729H14.1791H14.1853H14.1915H14.1977H14.2038H14.21H14.2162H14.2224H14.2286H14.2348H14.2411H14.2473H14.2535H14.2597H14.266H14.2722H14.2784H14.2847H14.2909H14.2972H14.3034H14.3097H14.316H14.3222H14.3285H14.3348H14.3411H14.3474H14.3537H14.36H14.3663H14.3726H14.379H14.3853H14.3916H14.398H14.4043H14.4107H14.4171H14.4234H14.4298H14.4362H14.4426H14.449H14.4554H14.4618H14.4683H14.4747H14.4811H14.4876H14.4941H14.5005H14.507H14.5135H14.52H14.5265H14.533H14.5395H14.546H14.5526H14.5591H14.5657H14.5722H14.5788H14.5854H14.592H14.5986H14.6052H14.6118H14.6185H14.6251H14.6318H14.6384H14.6451H14.6518H14.6585H14.6652H14.6719H14.6786H14.6854H14.6921H14.6989H14.7057H14.7124H14.7192H14.7261H14.7329H14.7397H14.7466H14.7534H14.7603H14.7672H14.7741H14.781H14.7879H14.7948H14.8018H14.8087H14.8157H14.8227H14.8297H14.8367H14.8437H14.8508H14.8578H14.8649H14.872H14.8791H14.8862H14.8933H14.9004H14.9076H14.9147H14.9219H14.9291H14.9363H14.9436H14.9508H14.9581H14.9653H14.9726H14.9799H14.9872H14.9946H15.0019H15.0093H15.0167H15.0241H15.0315H15.0389H15.0464H15.0538H15.0613H15.0688H15.0763H15.0838H15.0914H15.099H15.1065H15.1141H15.1218H15.1294H15.137H15.1447H15.1524H15.1601H15.1678H15.1756H15.1833H15.1911H15.1989H15.2067H15.2146H15.2224H15.2303H15.2382H15.2461H15.254H15.262H15.2699H15.2779H15.2859H15.294H15.302H15.3101H15.3182H15.3263H15.3344H15.3426H15.3507H15.3589H15.3671H15.3754H15.3836H15.3919H15.4002H15.4085H15.4168H15.4252H15.4336H15.442H15.4504H15.4588H15.4673H15.4758H15.4843H15.4928H15.5014H15.51H15.5186H15.5272H15.5358C16.8977 18.5445 18.464 18.2055 19.7235 17.1545C21.0446 16.0522 21.759 14.3921 21.759 12.3213C21.759 10.3927 20.9523 8.87262 19.6447 7.89193C18.4132 6.96828 16.8937 6.63391 15.5358 6.63391H15.5264H15.517H15.5076H15.4982H15.4889H15.4795H15.4702H15.4608H15.4515H15.4422H15.4329H15.4236H15.4143H15.4051H15.3958H15.3865H15.3773H15.3681H15.3589H15.3497H15.3405H15.3313H15.3221H15.3129H15.3038H15.2946H15.2855H15.2764H15.2673H15.2582H15.2491H15.24H15.2309H15.2219H15.2128H15.2038H15.1947H15.1857H15.1767H15.1677H15.1587H15.1497H15.1408H15.1318H15.1229H15.1139H15.105H15.0961H15.0872H15.0783H15.0694H15.0605H15.0517H15.0428H15.034H15.0251H15.0163H15.0075H14.9987H14.9899H14.9811H14.9723H14.9635H14.9548H14.946H14.9373H14.9286H14.9199H14.9112H14.9025H14.8938H14.8851H14.8764H14.8678H14.8591H14.8505H14.8418H14.8332H14.8246H14.816H14.8074H14.7988H14.7903H14.7817H14.7732H14.7646H14.7561H14.7476H14.739H14.7305H14.722H14.7136H14.7051H14.6966H14.6882H14.6797H14.6713H14.6628H14.6544H14.646H14.6376H14.6292H14.6208H14.6125H14.6041H14.5957H14.5874H14.5791H14.5707H14.5624H14.5541H14.5458H14.5375H14.5292H14.521H14.5127H14.5044H14.4962H14.4879H14.4797H14.4715H14.4633H14.4551H14.4469H14.4387H14.4305H14.4224H14.4142H14.4061H14.3979H14.3898H14.3817H14.3736H14.3655H14.3574H14.3493H14.3412H14.3331H14.3251H14.317H14.309H14.301H14.2929H14.2849H14.2769H14.2689H14.2609H14.2529H14.245H14.237H14.229H14.2211H14.2131H14.2052H14.1973H14.1894H14.1815H14.1736H14.1657H14.1578H14.1499H14.1421H14.1342H14.1264H14.1185H14.1107H14.1029H14.0951H14.0872H14.0795H14.0717H14.0639H14.0561H14.0483H14.0406H14.0328H14.0251H14.0174H14.0096H14.0019H13.9942H13.9865H13.9788H13.9711H13.9635H13.9558H13.9481H13.9405H13.9328H13.9252H13.9176H13.9099H13.9023H13.8947H13.8871H13.8795H13.8719H13.8644H13.8568H13.8492H13.8417H13.8341H13.8266H13.8191H13.8116H13.804H13.7965H13.789H13.7815H13.7741H13.7666H13.7591H13.7517H13.7442H13.7368H13.7293H13.7219H13.7145H13.7071H13.6996H13.6922H13.6848H13.6775H13.6701H13.6627H13.6553H13.648H13.6406H13.6333H13.626H13.6186H13.6113H13.604H13.5967H13.5894H13.5821H13.5748H13.5675H13.5603H13.553H13.5457H13.5385H13.5313H13.524H13.5168H13.5096H13.5024H13.4951H13.4879H13.4808H13.4736H13.4664H13.4592H13.452H13.4449H13.4377H13.4306H13.4234H13.4163H13.4092H13.4021H13.395H13.3879H13.3808H13.3737H13.3666H13.3595H13.3524H13.3454H13.3383H13.3312H13.3242H13.3172H13.3101H13.3031H13.2961H13.2891H13.2821H13.2751H13.2681H13.2611H13.2541H13.2471H13.2402H13.2332H13.2262H13.2193H13.2124H13.2054H13.1985H13.1916H13.1846H13.1777H13.1708H13.1639H13.157H13.1501H13.1433H13.1364H13.1295H13.1227H13.1158H13.109H13.1021H13.0953H13.0884H13.0816H13.0748H13.068H13.0612H13.0544H13.0476H13.0408H13.034H13.0272H13.0204H13.0137H13.0069H13.0002H12.9934H12.9867H12.9799H12.9732H12.9665H12.9598H12.953H12.9463H12.9396H12.9329H12.9262H12.9196H12.9129H12.9062H12.8995H12.8929H12.8862H12.8795H12.8729H12.8663H12.8596H12.853H12.8464H12.8397H12.8331H12.8265H12.8199H12.8133H12.8067H12.8001H12.7936H12.787H12.7804H12.7738H12.7673H12.7607H12.7542H12.7476H12.7411H12.7345H12.728H12.7215H12.715H12.7085H12.7019H12.6954H12.6889H12.6824H12.676H12.6695H12.663H12.6565H12.65H12.6436H12.6371H12.6307H12.6242H12.6178H12.6113H12.6049H12.5985H12.592H12.5856H12.5792H12.5728H12.5664H12.56H12.5536H12.5472H12.5408H12.5344H12.528H12.5217H12.5153H12.5089H12.5026H12.4962H12.4899H12.4835H12.4772H12.4708H12.4645H12.4582H12.4519H12.4455H12.4392H12.4329H12.4266H12.4203H12.414H12.4077H12.4014H12.3951H12.3889H12.3826H12.3763H12.3701H12.3638H12.3575H12.3513H12.345H12.3388H12.3325H12.3263H12.3201H12.3138H12.3076H12.3014H12.2952H12.289H12.2828H12.2765H12.2703H12.2641H12.258H12.2518H12.2456H12.2394H12.2332H12.227H12.2209H12.2147H12.2086H12.2024H12.1962H12.1901H12.1839H12.1778H12.1717H12.1655H12.1594H12.1533H12.1471H12.141H12.1349H12.1288H12.1227H12.1166H12.1105H12.1044H12.0983H12.0922H12.0861H12.08H12.0739H12.0679H12.0618H12.0557H12.0496H12.0436H12.0375H12.0315H12.0254H12.0194H12.0133H12.0073H12.0012H11.9952H11.9892H11.9831H11.9771H11.9711H11.965H11.959H11.953H11.947H11.941H11.935H11.929H11.923H11.917H11.911H11.905H11.899H11.893H11.8871H11.8811H11.8751H11.8691H11.8632H11.8572H11.8512H11.8453H11.8393H11.8334H11.8274H11.8215H11.8155H11.8096H11.8036H11.7977H11.7918H11.7858ZM13.7234 14.6696H13.7233V10.5088H13.7293H13.7368H13.7442H13.7517H13.7591H13.7666H13.7741H13.7815H13.789H13.7965H13.804H13.8116H13.8191H13.8266H13.8341H13.8417H13.8492H13.8568H13.8644H13.8719H13.8795H13.8871H13.8947H13.9023H13.9099H13.9176H13.9252H13.9328H13.9405H13.9481H13.9558H13.9635H13.9711H13.9788H13.9865H13.9942H14.0019H14.0096H14.0174H14.0251H14.0328H14.0406H14.0483H14.0561H14.0639H14.0717H14.0795H14.0872H14.0951H14.1029H14.1107H14.1185H14.1264H14.1342H14.1421H14.1499H14.1578H14.1657H14.1736H14.1815H14.1894H14.1973H14.2052H14.2131H14.2211H14.229H14.237H14.245H14.2529H14.2609H14.2689H14.2769H14.2849H14.2929H14.301H14.309H14.317H14.3251H14.3331H14.3412H14.3493H14.3574H14.3655H14.3736H14.3817H14.3898H14.3979H14.4061H14.4142H14.4224H14.4305H14.4387H14.4469H14.4551H14.4633H14.4715H14.4797H14.4879H14.4962H14.5044H14.5127H14.521H14.5292H14.5375H14.5458H14.5541H14.5624H14.5707H14.5791H14.5874H14.5957H14.6041H14.6125H14.6208H14.6292H14.6376H14.646H14.6544H14.6628H14.6713H14.6797H14.6882H14.6966H14.7051H14.7136H14.722H14.7305H14.739H14.7476H14.7561H14.7646H14.7732H14.7817H14.7903H14.7988H14.8074H14.816H14.8246H14.8332H14.8418H14.8505H14.8591H14.8678H14.8764H14.8851H14.8938H14.9025H14.9112H14.9199H14.9286H14.9373H14.946H14.9548H14.9635H14.9723H14.9811H14.9899H14.9987H15.0075H15.0163H15.0251H15.034H15.0428H15.0517H15.0605H15.0694H15.0783H15.0872H15.0961H15.105H15.1139H15.1229H15.1318H15.1408H15.1497H15.1587H15.1677H15.1767H15.1857H15.1947H15.2038H15.2128H15.2219H15.2309H15.24H15.2491H15.2582H15.2673H15.2764H15.2855H15.2946H15.3038H15.3129H15.3221H15.3313H15.3405H15.3497H15.3589H15.3681H15.3773H15.3865H15.3958H15.4051H15.4143H15.4236H15.4329H15.4422H15.4515H15.4608H15.4702H15.4795H15.4889H15.4982H15.5076H15.517H15.5264H15.5358C16.3208 10.5088 16.9442 10.7101 17.3198 10.9918C17.6194 11.2165 17.8841 11.5714 17.8841 12.3213C17.8841 13.4578 17.5271 13.9406 17.241 14.1794C16.8933 14.4694 16.3168 14.6696 15.5358 14.6696H15.5272H15.5186H15.51H15.5014H15.4928H15.4843H15.4758H15.4673H15.4588H15.4504H15.442H15.4336H15.4252H15.4168H15.4085H15.4002H15.3919H15.3836H15.3754H15.3671H15.3589H15.3507H15.3426H15.3344H15.3263H15.3182H15.3101H15.302H15.294H15.2859H15.2779H15.2699H15.262H15.254H15.2461H15.2382H15.2303H15.2224H15.2146H15.2067H15.1989H15.1911H15.1833H15.1756H15.1678H15.1601H15.1524H15.1447H15.137H15.1294H15.1218H15.1141H15.1065H15.099H15.0914H15.0838H15.0763H15.0688H15.0613H15.0538H15.0464H15.0389H15.0315H15.0241H15.0167H15.0093H15.0019H14.9946H14.9872H14.9799H14.9726H14.9653H14.9581H14.9508H14.9436H14.9363H14.9291H14.9219H14.9147H14.9076H14.9004H14.8933H14.8862H14.8791H14.872H14.8649H14.8578H14.8508H14.8437H14.8367H14.8297H14.8227H14.8157H14.8087H14.8018H14.7948H14.7879H14.781H14.7741H14.7672H14.7603H14.7534H14.7466H14.7397H14.7329H14.7261H14.7192H14.7124H14.7057H14.6989H14.6921H14.6854H14.6786H14.6719H14.6652H14.6585H14.6518H14.6451H14.6384H14.6318H14.6251H14.6185H14.6118H14.6052H14.5986H14.592H14.5854H14.5788H14.5722H14.5657H14.5591H14.5526H14.546H14.5395H14.533H14.5265H14.52H14.5135H14.507H14.5005H14.4941H14.4876H14.4811H14.4747H14.4683H14.4618H14.4554H14.449H14.4426H14.4362H14.4298H14.4234H14.4171H14.4107H14.4043H14.398H14.3916H14.3853H14.379H14.3726H14.3663H14.36H14.3537H14.3474H14.3411H14.3348H14.3285H14.3222H14.316H14.3097H14.3034H14.2972H14.2909H14.2847H14.2784H14.2722H14.266H14.2597H14.2535H14.2473H14.2411H14.2348H14.2286H14.2224H14.2162H14.21H14.2038H14.1977H14.1915H14.1853H14.1791H14.1729H14.1668H14.1606H14.1544H14.1483H14.1421H14.1359H14.1298H14.1236H14.1175H14.1113H14.1052H14.099H14.0929H14.0867H14.0806H14.0744H14.0683H14.0622H14.056H14.0499H14.0438H14.0376H14.0315H14.0254H14.0192H14.0131H14.007H14.0008H13.9947H13.9886H13.9824H13.9763H13.9702H13.964H13.9579H13.9518H13.9456H13.9395H13.9334H13.9272H13.9211H13.9149H13.9088H13.9027H13.8965H13.8904H13.8842H13.8781H13.8719H13.8658H13.8596H13.8535H13.8473H13.8411H13.835H13.8288H13.8226H13.8165H13.8103H13.8041H13.7979H13.7917H13.7855H13.7793H13.7731H13.7669H13.7607H13.7545H13.7483H13.7421H13.7359H13.7297H13.7234Z" fill="white"/>
</svg>
