<svg width="16" height="16" viewBox="0 0 16 16" fill="none" xmlns="http://www.w3.org/2000/svg">
<path d="M1.20852 8.99498L12.3785 8.99498L7.49852 13.875C7.10852 14.265 7.10852 14.905 7.49852 15.295C7.68535 15.4822 7.939 15.5875 8.20352 15.5875C8.46803 15.5875 8.72168 15.4822 8.90852 15.295L15.4985 8.70498C15.8885 8.31498 15.8885 7.68498 15.4985 7.29498L8.90852 0.704977C8.51852 0.314977 7.88852 0.314977 7.49852 0.704977C7.10852 1.09498 7.10852 1.72498 7.49852 2.11498L12.3785 6.99498L1.20852 6.99498C0.658516 6.99498 0.208516 7.44498 0.208516 7.99498C0.208516 8.54498 0.658516 8.99498 1.20852 8.99498Z" fill="white"/>
</svg>
