<svg width="81" height="37" viewBox="0 0 81 37" fill="none" xmlns="http://www.w3.org/2000/svg">
<path d="M4.72356 22.3539V22.9736C6.22428 21.7906 8.11407 20.6638 10.2262 19.6497C14.7839 17.4526 19.1749 16.5512 21.4538 17.0582V16.8329C18.5635 16.2695 14.2281 17.0582 9.83713 19.1427C6.7801 20.6638 3.88982 23.03 4.72356 22.3539Z" fill="url(#paint0_linear)"/>
<path d="M52.302 12.0441C51.8573 12.0441 51.4126 11.8187 51.2459 11.368C50.301 9.39624 48.3556 8.21315 46.2435 8.21315C44.1314 8.21315 42.186 9.39624 41.2411 11.368C40.9632 11.9878 40.2406 12.2131 39.6292 11.9314C39.0178 11.6497 38.7955 10.9173 39.0734 10.2976C40.4629 7.53711 43.1865 5.79065 46.2435 5.79065C49.3005 5.79065 52.0796 7.53711 53.4136 10.2976C53.6915 10.9173 53.4692 11.6497 52.8578 11.9314C52.6354 12.0441 52.4687 12.0441 52.302 12.0441Z" fill="url(#paint1_linear)"/>
<path d="M36.35 8.2696C36.1277 8.2696 35.9054 8.21326 35.6831 8.04425C35.1272 7.64989 35.0161 6.9175 35.4051 6.41047C37.8508 2.80488 41.9083 0.664062 46.1881 0.664062C50.4679 0.664062 54.4699 2.80488 56.9155 6.35413C57.3046 6.9175 57.1378 7.64989 56.6376 7.98791C56.0818 8.38227 55.3592 8.21326 55.0257 7.70623C53.0247 4.77669 49.7454 3.03023 46.1881 3.03023C42.6308 3.03023 39.3515 4.77669 37.3505 7.76256C37.1282 8.10059 36.7391 8.2696 36.35 8.2696Z" fill="url(#paint2_linear)"/>
<path d="M7.00195 18.6924C7.00195 17.7347 7.22428 16.9459 7.66894 16.2135C8.1136 15.4812 8.66942 14.9178 9.39199 14.4108C10.1146 13.9601 10.8927 13.622 11.782 13.3403C12.6713 13.115 13.5607 13.0023 14.45 13.0023C15.3393 13.0023 16.2286 13.115 17.1179 13.3403C18.0072 13.5657 18.7854 13.9037 19.508 14.4108C20.2305 14.9178 20.7864 15.4812 21.231 16.2135C21.6757 16.9459 21.898 17.7347 21.898 18.6924V30.9739C21.898 31.9317 21.6757 32.7767 21.231 33.5091C20.7864 34.1851 20.2305 34.8049 19.508 35.2556C18.7854 35.7063 17.9517 36.1006 17.1179 36.326C16.2286 36.5513 15.3393 36.664 14.45 36.664C13.5607 36.664 12.6713 36.5513 11.782 36.326C10.8927 36.1006 10.1146 35.7063 9.39199 35.2556C8.66942 34.8049 8.1136 34.2415 7.66894 33.5091C7.22428 32.8331 7.00195 31.988 7.00195 30.9739V18.6924ZM11.4485 30.9739C11.4485 31.7626 11.7264 32.3824 12.3379 32.7767C12.9493 33.1711 13.6162 33.3401 14.45 33.3401C15.2837 33.3401 15.9507 33.1711 16.5621 32.7767C17.1735 32.3824 17.4514 31.819 17.4514 30.9739V18.6924C17.4514 17.9037 17.1735 17.284 16.5621 16.8896C15.9507 16.4952 15.2837 16.3262 14.45 16.3262C13.6162 16.3262 12.9493 16.4952 12.3379 16.8896C11.7264 17.284 11.4485 17.8473 11.4485 18.6924V30.9739Z" fill="white"/>
<path d="M26.4004 36.4387V13.1714H33.0703C34.2931 13.1714 35.3491 13.2841 36.294 13.5094C37.2389 13.7348 38.0727 14.1855 38.7952 14.8052C39.5734 15.4249 40.0736 16.1009 40.3515 16.946C40.6295 17.7347 40.7962 18.8615 40.7962 20.2699C40.7962 21.3403 40.7406 22.1854 40.5739 22.9177C40.4071 23.6501 40.0736 24.3262 39.5734 24.9459C38.962 25.7346 38.1283 26.298 37.1278 26.7487C36.1273 27.1994 34.7933 27.3684 33.1258 27.3684H30.847V36.4387H26.4004ZM30.847 16.3263V24.2135H32.9591C33.8484 24.2135 34.571 24.1008 35.0712 23.9318C35.5715 23.7628 35.905 23.4811 36.1829 23.1431C36.4052 22.8051 36.5719 22.4107 36.5719 21.96C36.6275 21.5093 36.6275 20.9459 36.6275 20.3826C36.6275 19.8192 36.6275 19.3122 36.5719 18.8051C36.5164 18.2981 36.4052 17.9037 36.1829 17.5094C35.9605 17.115 35.627 16.8333 35.1268 16.6643C34.6821 16.4953 34.0152 16.3826 33.1258 16.3826H30.847V16.3263Z" fill="white"/>
<path d="M44.0752 36.4382V19.8187H48.5218V36.4382H44.0752Z" fill="white"/>
<path d="M48.4104 13.2264H43.9082V13.2828H48.4104V13.2264Z" fill="#FDC800"/>
<path d="M48.4104 13.2835H43.9082V13.3398H48.4104V13.2835Z" fill="#FDC700"/>
<path d="M48.4104 13.2835H43.9082V13.3398H48.4104V13.2835Z" fill="#FDC700"/>
<path d="M48.4104 13.3398H43.9082V13.3962H48.4104V13.3398Z" fill="#FDC600"/>
<path d="M48.4104 13.3955H43.9082V13.4518H48.4104V13.3955Z" fill="#FDC500"/>
<path d="M48.4104 13.4525H43.9082V13.5089H48.4104V13.4525Z" fill="#FCC500"/>
<path d="M48.4104 13.4525H43.9082V13.5089H48.4104V13.4525Z" fill="#FCC400"/>
<path d="M48.4104 13.5083H43.9082V13.5646H48.4104V13.5083Z" fill="#FCC300"/>
<path d="M48.4104 13.5653H43.9082V13.6216H48.4104V13.5653Z" fill="#FCC200"/>
<path d="M48.4104 13.621H43.9082V13.6774H48.4104V13.621Z" fill="#FCC200"/>
<path d="M48.4104 13.621H43.9082V13.6774H48.4104V13.621Z" fill="#FCC100"/>
<path d="M48.4104 13.6773H43.9082V13.7336H48.4104V13.6773Z" fill="#FBC000"/>
<path d="M48.4104 13.7345H43.9082V13.7908H48.4104V13.7345Z" fill="#FBC000"/>
<path d="M48.4104 13.7901H43.9082V13.8464H48.4104V13.7901Z" fill="#FBBF00"/>
<path d="M48.4104 13.8473H43.9082V13.9036H48.4104V13.8473Z" fill="#FBBE00"/>
<path d="M48.4104 13.8473H43.9082V13.9036H48.4104V13.8473Z" fill="#FBBE00"/>
<path d="M48.4104 13.903H43.9082V13.9593H48.4104V13.903Z" fill="#FBBD00"/>
<path d="M48.4104 13.9586H43.9082V14.0149H48.4104V13.9586Z" fill="#FABC00"/>
<path d="M48.4104 14.0157H43.9082V14.072H48.4104V14.0157Z" fill="#FABB00"/>
<path d="M48.4104 14.0157H43.9082V14.072H48.4104V14.0157Z" fill="#FABB00"/>
<path d="M48.4104 14.0721H43.9082V14.1284H48.4104V14.0721Z" fill="#FABA00"/>
<path d="M48.4104 14.1292H43.9082V14.1855H48.4104V14.1292Z" fill="#FAB900"/>
<path d="M48.4104 14.1848H43.9082V14.2412H48.4104V14.1848Z" fill="#FAB800"/>
<path d="M48.4104 14.1848H43.9082V14.2412H48.4104V14.1848Z" fill="#F9B800"/>
<path d="M48.4104 14.2405H43.9082V14.2969H48.4104V14.2405Z" fill="#F9B701"/>
<path d="M48.4104 14.2975H43.9082V14.3539H48.4104V14.2975Z" fill="#F9B603"/>
<path d="M48.4104 14.3532H43.9082V14.4095H48.4104V14.3532Z" fill="#F9B506"/>
<path d="M48.4104 14.4103H43.9082V14.4666H48.4104V14.4103Z" fill="#F9B508"/>
<path d="M48.4104 14.4103H43.9082V14.4666H48.4104V14.4103Z" fill="#F9B40B"/>
<path d="M48.4104 14.4666H43.9082V14.523H48.4104V14.4666Z" fill="#F8B30D"/>
<path d="M48.4104 14.5223H43.9082V14.5787H48.4104V14.5223Z" fill="#F8B30F"/>
<path d="M48.4104 14.5794H43.9082V14.6357H48.4104V14.5794Z" fill="#F8B211"/>
<path d="M48.4104 14.5794H43.9082V14.6357H48.4104V14.5794Z" fill="#F8B113"/>
<path d="M48.4104 14.6351H43.9082V14.6914H48.4104V14.6351Z" fill="#F8B014"/>
<path d="M48.4104 14.6921H43.9082V14.7484H48.4104V14.6921Z" fill="#F8B016"/>
<path d="M48.4104 14.7477H43.9082V14.8041H48.4104V14.7477Z" fill="#F7AF17"/>
<path d="M48.4104 14.7477H43.9082V14.8041H48.4104V14.7477Z" fill="#F7AE18"/>
<path d="M48.4104 14.8042H43.9082V14.8605H48.4104V14.8042Z" fill="#F7AD19"/>
<path d="M48.4104 14.8612H43.9082V14.9175H48.4104V14.8612Z" fill="#F7AD1B"/>
<path d="M48.4104 14.9169H43.9082V14.9732H48.4104V14.9169Z" fill="#F7AC1C"/>
<path d="M48.4104 14.974H43.9082V15.0303H48.4104V14.974Z" fill="#F7AB1D"/>
<path d="M48.4104 14.974H43.9082V15.0303H48.4104V14.974Z" fill="#F6AA1E"/>
<path d="M48.4104 15.0296H43.9082V15.0859H48.4104V15.0296Z" fill="#F6AA1F"/>
<path d="M48.4104 15.0853H43.9082V15.1417H48.4104V15.0853Z" fill="#F6A920"/>
<path d="M48.4104 15.1425H43.9082V15.1989H48.4104V15.1425Z" fill="#F6A821"/>
<path d="M48.4104 15.1425H43.9082V15.1989H48.4104V15.1425Z" fill="#F6A722"/>
<path d="M48.4104 15.1988H43.9082V15.2551H48.4104V15.1988Z" fill="#F6A622"/>
<path d="M48.4104 15.2559H43.9082V15.3122H48.4104V15.2559Z" fill="#F5A623"/>
<path d="M48.4104 15.3116H43.9082V15.3679H48.4104V15.3116Z" fill="#F5A524"/>
<path d="M48.4104 15.3673H43.9082V15.4236H48.4104V15.3673Z" fill="#F5A425"/>
<path d="M48.4104 15.3673H43.9082V15.4236H48.4104V15.3673Z" fill="#F5A326"/>
<path d="M48.4104 15.4244H43.9082V15.4807H48.4104V15.4244Z" fill="#F5A326"/>
<path d="M48.4104 15.4801H43.9082V15.5364H48.4104V15.4801Z" fill="#F5A227"/>
<path d="M48.4104 15.5371H43.9082V15.5934H48.4104V15.5371Z" fill="#F4A128"/>
<path d="M48.4104 15.5371H43.9082V15.5934H48.4104V15.5371Z" fill="#F4A028"/>
<path d="M48.4104 15.5934H43.9082V15.6497H48.4104V15.5934Z" fill="#F49F29"/>
<path d="M48.4104 15.6492H43.9082V15.7055H48.4104V15.6492Z" fill="#F49F2A"/>
<path d="M48.4104 15.7062H43.9082V15.7625H48.4104V15.7062Z" fill="#F49E2A"/>
<path d="M48.4104 15.7062H43.9082V15.7625H48.4104V15.7062Z" fill="#F49D2B"/>
<path d="M48.4104 15.7618H43.9082V15.8182H48.4104V15.7618Z" fill="#F39C2C"/>
<path d="M48.4104 15.8189H43.9082V15.8752H48.4104V15.8189Z" fill="#F39C2C"/>
<path d="M48.4104 15.8746H43.9082V15.931H48.4104V15.8746Z" fill="#F39B2D"/>
<path d="M48.4104 15.931H43.9082V15.9873H48.4104V15.931Z" fill="#F39A2D"/>
<path d="M48.4104 15.931H43.9082V15.9873H48.4104V15.931Z" fill="#F3992E"/>
<path d="M48.4104 15.988H43.9082V16.0444H48.4104V15.988Z" fill="#F3982F"/>
<path d="M48.4104 16.0437H43.9082V16.1H48.4104V16.0437Z" fill="#F2982F"/>
<path d="M48.4104 16.1007H43.9082V16.157H48.4104V16.1007Z" fill="#F29730"/>
<path d="M48.4104 16.1007H43.9082V16.157H48.4104V16.1007Z" fill="#F29630"/>
<path d="M48.4104 16.1565H43.9082V16.2128H48.4104V16.1565Z" fill="#F29531"/>
<path d="M48.4104 16.2122H43.9082V16.2685H48.4104V16.2122Z" fill="#F29431"/>
<path d="M48.4104 16.2692H43.9082V16.3255H48.4104V16.2692Z" fill="#F29432"/>
<path d="M48.4104 16.2692H43.9082V16.3255H48.4104V16.2692Z" fill="#F19332"/>
<path d="M48.4104 16.3255H43.9082V16.3818H48.4104V16.3255Z" fill="#F19233"/>
<path d="M48.4104 16.3827H43.9082V16.439H48.4104V16.3827Z" fill="#F19133"/>
<path d="M48.4104 16.4384H43.9082V16.4948H48.4104V16.4384Z" fill="#F19034"/>
<path d="M48.4104 16.494H43.9082V16.5503H48.4104V16.494Z" fill="#F18F34"/>
<path d="M61.9723 13.1714V33.2838H67.0858V36.4387H52.4121V33.2838H57.5257V13.1714H61.9723Z" fill="white"/>
<path d="M71.3108 36.4387V16.3263H66.1416V13.1714H80.8709V16.3263H75.7573V36.4387H71.3108Z" fill="white"/>
<path d="M24.5657 18.8047C24.0654 17.7906 22.9538 17.1146 21.4531 16.8329V17.0019C22.2312 17.1709 22.787 17.5089 23.0094 18.0723C23.9543 20.1568 19.7856 24.1567 13.7271 27.0863C7.61308 30.0158 1.88811 30.6919 0.943209 28.6074C0.331804 27.2553 1.88811 25.0581 4.7228 22.9173V22.2976C1.16554 25.1145 -0.724259 28.2694 0.276222 30.4102C1.66578 33.4524 8.28007 33.3397 14.9499 30.1285C21.6754 26.9173 25.9552 21.8469 24.5657 18.8047Z" fill="url(#paint3_linear)"/>
<defs>
<linearGradient id="paint0_linear" x1="4.58238" y1="19.8497" x2="21.4955" y2="19.8497" gradientUnits="userSpaceOnUse">
<stop stop-color="#FFEF26"/>
<stop offset="0.0594872" stop-color="#FFE000"/>
<stop offset="0.1303" stop-color="#FFD300"/>
<stop offset="0.2032" stop-color="#FECB00"/>
<stop offset="0.2809" stop-color="#FDC800"/>
<stop offset="1" stop-color="#F18F34"/>
</linearGradient>
<linearGradient id="paint1_linear" x1="46.19" y1="5.79375" x2="46.19" y2="12.0665" gradientUnits="userSpaceOnUse">
<stop stop-color="#FFEF26"/>
<stop offset="0.0594872" stop-color="#FFE000"/>
<stop offset="0.1303" stop-color="#FFD300"/>
<stop offset="0.2032" stop-color="#FECB00"/>
<stop offset="0.2809" stop-color="#FDC800"/>
<stop offset="1" stop-color="#F18F34"/>
</linearGradient>
<linearGradient id="paint2_linear" x1="46.1723" y1="0.664062" x2="46.1723" y2="8.26825" gradientUnits="userSpaceOnUse">
<stop stop-color="#FFEF26"/>
<stop offset="0.0594872" stop-color="#FFE000"/>
<stop offset="0.1303" stop-color="#FFD300"/>
<stop offset="0.2032" stop-color="#FECB00"/>
<stop offset="0.2809" stop-color="#FDC800"/>
<stop offset="1" stop-color="#F18F34"/>
</linearGradient>
<linearGradient id="paint3_linear" x1="-0.00168962" y1="24.7241" x2="24.8289" y2="24.7241" gradientUnits="userSpaceOnUse">
<stop stop-color="#FFEF26"/>
<stop offset="0.0594872" stop-color="#FFE000"/>
<stop offset="0.1303" stop-color="#FFD300"/>
<stop offset="0.2032" stop-color="#FECB00"/>
<stop offset="0.2809" stop-color="#FDC800"/>
<stop offset="1" stop-color="#F18F34"/>
</linearGradient>
</defs>
</svg>
