<svg width="27" height="25" viewBox="0 0 27 25" fill="none" xmlns="http://www.w3.org/2000/svg">
<rect x="2.5" y="0.5" width="17.871" height="17.871" rx="4.5" fill="#FFC803" stroke="white"/>
<g filter="url(#filter0_d)">
<path d="M6.04914 8.47395C5.5181 8.32223 4.96461 8.62972 4.81289 9.16075C4.66117 9.69179 4.96866 10.2453 5.49969 10.397L6.04914 8.47395ZM11.4357 15.0968L10.4742 15.3715C10.5946 15.7931 10.9756 16.087 11.414 16.0965C11.8523 16.1061 12.2457 15.8289 12.3844 15.413L11.4357 15.0968ZM22.0371 2.10172C22.503 1.80521 22.6404 1.18712 22.3439 0.721181C22.0474 0.25524 21.4293 0.117887 20.9633 0.414395L22.0371 2.10172ZM5.49969 10.397C7.41295 10.9436 8.65483 12.1737 9.43223 13.3044C9.82054 13.8692 10.0855 14.3995 10.2523 14.7855C10.3353 14.9779 10.3932 15.1326 10.4292 15.2355C10.4472 15.2868 10.4596 15.325 10.467 15.3484C10.4707 15.36 10.4731 15.3679 10.4743 15.3718C10.4748 15.3738 10.4751 15.3748 10.4751 15.3747C10.4751 15.3747 10.475 15.3744 10.4749 15.3739C10.4748 15.3736 10.4747 15.3733 10.4746 15.3729C10.4745 15.3727 10.4744 15.3723 10.4744 15.3722C10.4743 15.3719 10.4742 15.3715 11.4357 15.0968C12.3972 14.822 12.3971 14.8216 12.397 14.8212C12.3969 14.821 12.3968 14.8206 12.3967 14.8202C12.3965 14.8196 12.3963 14.8188 12.3961 14.818C12.3956 14.8164 12.3951 14.8145 12.3944 14.8124C12.3932 14.8081 12.3916 14.8027 12.3897 14.7963C12.3858 14.7835 12.3806 14.7666 12.374 14.7457C12.3608 14.7039 12.3419 14.6463 12.3169 14.5748C12.2669 14.4319 12.1921 14.2327 12.0884 13.9927C11.8816 13.5138 11.5569 12.8646 11.0803 12.1714C10.1279 10.786 8.5391 9.18537 6.04914 8.47395L5.49969 10.397ZM11.4357 15.0968C12.3844 15.413 12.3843 15.4132 12.3843 15.4134C12.3843 15.4134 12.3842 15.4135 12.3842 15.4135C12.3842 15.4136 12.3842 15.4135 12.3843 15.4132C12.3845 15.4127 12.3848 15.4117 12.3854 15.41C12.3865 15.4068 12.3883 15.4013 12.391 15.3937C12.3962 15.3783 12.4045 15.3543 12.4159 15.322C12.4387 15.2574 12.4737 15.1597 12.5212 15.0324C12.6162 14.7779 12.7609 14.4054 12.9563 13.943C13.3476 13.0173 13.9403 11.7363 14.7429 10.3222C16.3587 7.4753 18.7761 4.17689 22.0371 2.10172L20.9633 0.414395C17.305 2.74245 14.6901 6.36339 13.0035 9.33502C12.1549 10.8302 11.5288 12.1832 11.1142 13.1643C10.9066 13.6553 10.7515 14.0544 10.6475 14.333C10.5955 14.4724 10.5562 14.5817 10.5295 14.6574C10.5162 14.6953 10.506 14.7248 10.4989 14.7455C10.4954 14.7558 10.4926 14.7639 10.4906 14.7698C10.4896 14.7727 10.4888 14.7751 10.4882 14.7769C10.4879 14.7778 10.4877 14.7785 10.4875 14.7791C10.4874 14.7794 10.4873 14.7798 10.4872 14.7799C10.4871 14.7803 10.487 14.7805 11.4357 15.0968Z" fill="#05163C"/>
</g>
<defs>
<filter id="filter0_d" x="0.774414" y="0.257935" width="25.7262" height="23.8388" filterUnits="userSpaceOnUse" color-interpolation-filters="sRGB">
<feFlood flood-opacity="0" result="BackgroundImageFix"/>
<feColorMatrix in="SourceAlpha" type="matrix" values="0 0 0 0 0 0 0 0 0 0 0 0 0 0 0 0 0 0 127 0" result="hardAlpha"/>
<feOffset dy="4"/>
<feGaussianBlur stdDeviation="2"/>
<feColorMatrix type="matrix" values="0 0 0 0 0 0 0 0 0 0 0 0 0 0 0 0 0 0 0.25 0"/>
<feBlend mode="normal" in2="BackgroundImageFix" result="effect1_dropShadow"/>
<feBlend mode="normal" in="SourceGraphic" in2="effect1_dropShadow" result="shape"/>
</filter>
</defs>
</svg>
